<svg width="555" height="603" viewBox="0 0 555 603" fill="none" xmlns="http://www.w3.org/2000/svg">
<path d="M28.8 281.24H51.84V287H5.76V281.24H23.04V144.152C16.896 135.704 11.136 131.48 5.76 131.48V125.72H59.616L140.544 221.624V131.48H117.504V125.72H166.464V131.48H146.304V289.88H140.544L28.8 151.352V281.24ZM299.133 206.072C299.133 181.496 295.773 162.392 289.053 148.76C282.525 134.936 273.405 128.024 261.693 128.024C250.173 128.024 241.053 134.936 234.333 148.76C227.613 162.584 224.253 181.88 224.253 206.648C224.253 231.416 227.421 250.52 233.757 263.96C240.285 277.4 249.597 284.12 261.693 284.12C286.653 284.12 299.133 258.104 299.133 206.072ZM345.501 207.8C345.501 234.104 337.725 254.36 322.173 268.568C306.621 282.776 286.365 289.88 261.405 289.88C236.445 289.88 216.285 282.872 200.925 268.856C185.565 254.648 177.885 234.392 177.885 208.088C177.885 181.592 185.565 160.664 200.925 145.304C216.285 129.944 236.637 122.264 261.981 122.264C287.517 122.264 307.773 129.944 322.749 145.304C337.917 160.472 345.501 181.304 345.501 207.8Z" fill="white"/>
<path d="M152.352 368.68C152.352 351.592 149.472 340.168 143.712 334.408C138.144 328.456 127.584 325.48 112.032 325.48H103.392V475.24H123.552V481H40.032V475.24H60.192V325.48H51.552C36.192 325.48 25.632 328.456 19.872 334.408C14.304 340.168 11.52 351.592 11.52 368.68H5.76V319.72H158.112V368.68H152.352ZM261.889 475.24C290.689 475.24 305.089 458.92 305.089 426.28H310.849V481H175.489V475.24H189.889V325.48H175.489V319.72H307.969V368.68H302.209C302.209 351.592 298.753 340.168 291.841 334.408C285.121 328.456 274.177 325.48 259.009 325.48H233.089V394.6H244.609C258.433 394.6 267.169 392.872 270.817 389.416C274.465 385.96 276.289 379.048 276.289 368.68H282.049V426.28H276.289C276.289 415.528 274.465 408.52 270.817 405.256C267.169 401.992 258.433 400.36 244.609 400.36H233.089V475.24H261.889ZM343.946 481H338.186V413.896H343.946C343.946 431.944 350.378 447.304 363.242 459.976C376.298 472.648 392.138 478.984 410.762 478.984C418.442 478.984 424.586 476.776 429.194 472.36C433.994 467.752 436.394 461.704 436.394 454.216C436.394 445.768 430.922 438.568 419.978 432.616C414.026 429.544 403.754 424.744 389.162 418.216C374.57 411.496 364.298 405.832 358.346 401.224C346.442 392.008 341.162 379.816 342.506 364.648C344.042 349.48 349.802 337.768 359.786 329.512C369.77 321.064 381.002 316.84 393.482 316.84C406.154 316.84 417.482 318.568 427.466 322.024C437.642 325.288 443.402 326.92 444.746 326.92C448.586 326.92 450.506 323.56 450.506 316.84H456.266V369.544H450.506C450.506 355.72 445.418 344.488 435.242 335.848C425.066 327.016 412.01 322.6 396.074 322.6C388.97 322.6 383.402 324.712 379.37 328.936C375.338 332.968 373.322 337.48 373.322 342.472C373.322 347.464 373.994 351.304 375.338 353.992C376.682 356.68 378.986 359.176 382.25 361.48C385.706 363.592 388.682 365.32 391.178 366.664C393.674 368.008 397.61 369.832 402.986 372.136C408.554 374.44 412.394 376.072 414.506 377.032C425.066 381.832 431.306 384.712 433.226 385.672C435.146 386.44 437.93 387.784 441.578 389.704C445.226 391.624 447.914 393.352 449.642 394.888C451.562 396.424 453.962 398.344 456.842 400.648C459.722 402.952 461.834 405.352 463.178 407.848C464.522 410.152 465.866 412.84 467.21 415.912C469.898 422.056 470.858 429.256 470.09 437.512C468.554 453.064 462.698 464.968 452.522 473.224C442.538 481.288 429.002 485.32 411.914 485.32C396.554 485.32 381.29 481.384 366.122 473.512C360.938 470.824 357.098 469.48 354.602 469.48C347.498 469.48 343.946 473.32 343.946 481ZM518.364 487.048C511.068 487.048 504.828 484.456 499.644 479.272C494.46 474.088 491.868 467.848 491.868 460.552C491.868 453.064 494.46 446.728 499.644 441.544C504.828 436.36 511.068 433.768 518.364 433.768C525.852 433.768 532.188 436.36 537.372 441.544C542.556 446.728 545.148 453.064 545.148 460.552C545.148 467.848 542.556 474.088 537.372 479.272C532.188 484.456 525.852 487.048 518.364 487.048Z" fill="white"/>
</svg>
